<svg preserveAspectRatio="none" overflow="visible" style="display: block;" width="53" height="55" viewBox="0 0 53 55" fill="none" xmlns="http://www.w3.org/2000/svg">
<g id="Group 15">
<g id="Group 14">
<path id="Star 4" d="M26.5 55L26.6142 30.3515L29.7565 54.7991L26.8409 30.3234L32.9637 54.1996L27.0623 30.2677L36.0729 53.2105L27.2753 30.1852L39.037 51.8468L27.4765 30.0772L41.811 50.1292L27.6629 29.9452L44.3529 48.0837L27.8317 29.7913L46.6242 45.7414L27.9803 29.6179L48.5905 43.1377L28.1065 29.4275L50.2218 40.3121L28.2083 29.2231L51.4936 37.3074L28.2842 29.0076L52.3865 34.1692L28.333 28.7845L52.887 30.9451L28.3541 28.5571L52.9874 27.6839L28.3471 28.3288L52.6864 24.4351L28.3121 28.1032L51.9884 21.2479L28.2496 27.8835L50.904 18.1707L28.1605 27.6732L49.4497 15.25L28.0463 27.4754L47.6475 12.5302L27.9087 27.2931L45.5247 10.0525L27.7497 27.1291L43.1135 7.85436L27.5718 26.986L40.4505 5.96925L27.3776 26.8657L37.576 4.42567L27.1701 26.7703L34.5335 3.24704L26.9525 26.701L31.3694 2.45121L26.728 26.6591L28.1314 2.05026L26.5 26.645L24.8686 2.05026L26.272 26.6591L21.6306 2.45121L26.0475 26.701L18.4665 3.24704L25.8299 26.7703L15.4241 4.42567L25.6224 26.8657L12.5495 5.96925L25.4282 26.986L9.88652 7.85436L25.2503 27.1291L7.47533 10.0525L25.0913 27.2931L5.35254 12.5302L24.9537 27.4754L3.55033 15.25L24.8395 27.6732L2.096 18.1707L24.7504 27.8835L1.01162 21.2479L24.6879 28.1032L0.313616 24.4351L24.6529 28.3288L0.0125675 27.6839L24.6459 28.5571L0.113045 30.9451L24.667 28.7845L0.61352 34.1692L24.7158 29.0076L1.50641 37.3074L24.7917 29.2231L2.77817 40.3121L24.8935 29.4275L4.40954 43.1377L25.0197 29.6179L6.37577 45.7414L25.1683 29.7913L8.64707 48.0837L25.3371 29.9452L11.189 50.1292L25.5235 30.0772L13.963 51.8468L25.7247 30.1852L16.9271 53.2105L25.9377 30.2677L20.0363 54.1996L26.1591 30.3234L23.2435 54.7991L26.3858 30.3515L26.5 55Z" fill="#AC4A23"/>
<path id="Ellipse 6" d="M52.9991 27.3415C52.9991 34.5929 50.3386 41.5473 45.6027 46.6749C40.8669 51.8024 34.4437 54.683 27.7462 54.683C21.0487 54.683 14.6255 51.8024 9.88968 46.6749C5.15384 41.5473 2.49327 34.5929 2.49327 27.3415L27.7462 27.3415H52.9991Z" fill="#1D1C1B"/>
</g>
<path id="Ellipse 5" d="M36.5586 27.6576C36.5586 26.3468 36.3004 25.0489 35.7988 23.8379C35.2972 22.6269 34.562 21.5266 33.6352 20.5997C32.7083 19.6729 31.608 18.9377 30.397 18.4361C29.186 17.9345 27.8881 17.6763 26.5773 17.6763C25.2665 17.6763 23.9686 17.9345 22.7576 18.4361C21.5466 18.9377 20.4463 19.6729 19.5194 20.5997C18.5926 21.5266 17.8573 22.6269 17.3557 23.8379C16.8541 25.0489 16.5959 26.3468 16.5959 27.6576L18.3985 27.6576C18.3985 26.5836 18.6101 25.52 19.0211 24.5277C19.4321 23.5354 20.0346 22.6338 20.794 21.8744C21.5535 21.1149 22.4551 20.5124 23.4474 20.1014C24.4397 19.6904 25.5032 19.4789 26.5773 19.4789C27.6513 19.4789 28.7149 19.6904 29.7072 20.1014C30.6995 20.5124 31.6011 21.1149 32.3605 21.8744C33.12 22.6338 33.7225 23.5354 34.1335 24.5277C34.5445 25.52 34.756 26.5836 34.756 27.6576H36.5586Z" fill="#1D1C1B"/>
<path id="Ellipse 4" d="M34.8302 27.5793C34.8302 25.3698 33.9525 23.2508 32.3901 21.6885C30.8278 20.1261 28.7088 19.2484 26.4993 19.2484C24.2898 19.2484 22.1708 20.1261 20.6085 21.6885C19.0461 23.2508 18.1684 25.3698 18.1684 27.5793L26.4993 27.5793H34.8302Z" fill="#AC4A25"/>
<g id="Group 12">
<line id="Line 1" y1="27.2373" x2="53" y2="27.2373" stroke="#DA8D2C"/>
<line id="Line 2" x1="3.11754" y1="29.1406" x2="49.8822" y2="29.1406" stroke="#DA8D2C"/>
<line id="Line 3" x1="6.23412" y1="31.042" x2="46.7635" y2="31.042" stroke="#DA8D2C"/>
<line id="Line 4" x1="7.79289" y1="32.9434" x2="45.2047" y2="32.9434" stroke="#DA8D2C"/>
<line id="Line 5" x1="10.9104" y1="34.8467" x2="42.0869" y2="34.8467" stroke="#DA8D2C"/>
<line id="Line 6" x1="14.028" y1="36.748" x2="38.9692" y2="36.748" stroke="#DA8D2C"/>
<line id="Line 7" x1="17.1455" y1="38.6494" x2="35.8514" y2="38.6494" stroke="#DA8D2C"/>
<line id="Line 8" x1="20.264" y1="40.5508" x2="32.7346" y2="40.5508" stroke="#DA8D2C"/>
</g>
</g>
</svg>
