<svg preserveAspectRatio="none" overflow="visible" style="display: block;" width="53" height="55" viewBox="0 0 53 55" fill="none" xmlns="http://www.w3.org/2000/svg">
<g id="Group 15">
<g id="Group 14">
<path id="Star 4" d="M25.4214 55L25.531 31.3547L28.5454 54.8073L25.7484 31.3278L31.6221 54.2322L25.9609 31.2743L34.6047 53.2833L26.1652 31.1952L37.4482 51.9752L26.3582 31.0915L40.1093 50.3275L26.5371 30.9649L42.5478 48.3652L26.699 30.8173L44.7266 46.1182L26.8415 30.6509L46.6128 43.6205L26.9625 30.4683L48.1778 40.9099L27.0602 30.2722L49.3978 38.0275L27.133 30.0655L50.2543 35.017L27.1799 29.8515L50.7345 31.9241L27.2001 29.6334L50.8308 28.7957L27.1934 29.4144L50.542 25.6791L27.1597 29.1979L49.8724 22.6216L27.0998 28.9871L48.8322 19.6696L27.0144 28.7854L47.4371 16.8678L26.9048 28.5956L45.7082 14.2587L26.7728 28.4208L43.6718 11.8818L26.6203 28.2635L41.3588 9.77319L26.4496 28.1261L38.8041 7.9648L26.2633 28.0108L36.0466 6.48405L26.0643 27.9192L33.128 5.35339L25.8555 27.8528L30.0926 4.58995L25.6401 27.8125L26.9864 4.20532L25.4214 27.7991L23.8565 4.20532L25.2028 27.8125L20.7503 4.58995L24.9874 27.8528L17.7149 5.35339L24.7786 27.9192L14.7963 6.48405L24.5796 28.0108L12.0388 7.9648L24.3933 28.1261L9.48414 9.77319L24.2226 28.2635L7.17109 11.8818L24.0701 28.4208L5.1347 14.2587L23.9381 28.5956L3.40583 16.8678L23.8285 28.7854L2.0107 19.6696L23.7431 28.9871L0.970448 22.6216L23.6831 29.1979L0.30085 25.6791L23.6495 29.4144L0.0120564 28.7957L23.6428 29.6334L0.108444 31.9241L23.663 29.8515L0.588549 35.017L23.7099 30.0655L1.4451 38.0275L23.7827 30.2722L2.6651 40.9099L23.8804 30.4683L4.23007 43.6205L24.0014 30.6509L6.11628 46.1182L24.1439 30.8173L8.29513 48.3652L24.3058 30.9649L10.7336 50.3275L24.4847 31.0915L13.3947 51.9752L24.6777 31.1952L16.2382 53.2833L24.882 31.2743L19.2208 54.2322L25.0945 31.3278L22.2974 54.8073L25.3119 31.3547L25.4214 55Z" fill="#AC4A23"/>
<path id="Ellipse 6" d="M52.9998 27.3415C52.9998 34.5929 50.3393 41.5473 45.6034 46.6749C40.8676 51.8024 34.4444 54.683 27.7469 54.683C21.0494 54.683 14.6262 51.8024 9.89036 46.6749C5.15451 41.5473 2.49394 34.5929 2.49394 27.3415L27.7469 27.3415H52.9998Z" fill="white"/>
</g>
<path id="Ellipse 5" d="M36.5588 27.6581C36.5588 26.3473 36.3007 25.0494 35.7991 23.8384C35.2974 22.6274 34.5622 21.5271 33.6354 20.6002C32.7085 19.6734 31.6082 18.9382 30.3972 18.4366C29.1862 17.9349 27.8883 17.6768 26.5775 17.6768C25.2667 17.6768 23.9688 17.935 22.7578 18.4366C21.5468 18.9382 20.4465 19.6734 19.5196 20.6002C18.5928 21.5271 17.8576 22.6274 17.3559 23.8384C16.8543 25.0494 16.5962 26.3473 16.5962 27.6581L18.3987 27.6581C18.3987 26.5841 18.6103 25.5205 19.0213 24.5282C19.4323 23.5359 20.0348 22.6343 20.7942 21.8749C21.5537 21.1154 22.4553 20.5129 23.4476 20.1019C24.4399 19.6909 25.5034 19.4794 26.5775 19.4794C27.6515 19.4794 28.7151 19.6909 29.7074 20.1019C30.6997 20.5129 31.6013 21.1154 32.3608 21.8749C33.1202 22.6343 33.7227 23.5359 34.1337 24.5282C34.5447 25.5205 34.7563 26.5841 34.7563 27.6581H36.5588Z" fill="#1D1C1B"/>
<path id="Ellipse 4" d="M34.8299 27.5789C34.8299 25.3694 33.9522 23.2504 32.3899 21.6881C30.8275 20.1257 28.7085 19.248 26.4991 19.248C24.2896 19.248 22.1706 20.1257 20.6082 21.6881C19.0459 23.2504 18.1682 25.3694 18.1682 27.5789L26.4991 27.5789H34.8299Z" fill="#AC4A25"/>
<g id="Group 12">
<line id="Line 1" y1="27.2381" x2="53" y2="27.2381" stroke="#DA8D2C"/>
<line id="Line 2" x1="3.11816" y1="29.1408" x2="49.8829" y2="29.1408" stroke="#DA8D2C"/>
<line id="Line 3" x1="6.23438" y1="31.0424" x2="46.7638" y2="31.0424" stroke="#DA8D2C"/>
<line id="Line 4" x1="7.79297" y1="32.944" x2="45.2047" y2="32.944" stroke="#DA8D2C"/>
<line id="Line 5" x1="10.9111" y1="34.8468" x2="42.0876" y2="34.8468" stroke="#DA8D2C"/>
<line id="Line 6" x1="14.0283" y1="36.7484" x2="38.9695" y2="36.7484" stroke="#DA8D2C"/>
<line id="Line 7" x1="17.1465" y1="38.65" x2="35.8524" y2="38.65" stroke="#DA8D2C"/>
<line id="Line 8" x1="20.2637" y1="40.5516" x2="32.7343" y2="40.5516" stroke="#DA8D2C"/>
</g>
</g>
</svg>
